<svg viewBox="0 0 24 24" xmlns="http://www.w3.org/2000/svg"><path d="m7.28338538 6.92597864 5.01208942-1.83158493c.2671783-.06978801.5403435.09022844.6101315.35740674.0216412.08285171.0216412.16987303 0 .25272474l-1.8315849 5.01208941c-.0457146.175015-.1823918.3116922-.3574068.3574068l-5.01208941 1.8315849c-.26717831.069788-.54034347-.0902285-.61013148-.3574068-.02164119-.0828517-.02164119-.169873 0-.2527247l1.83158493-5.01208942c.0457146-.175015.18239174-.31169214.35740674-.35740674zm-7.28338538 2.07402136c0 4.971 4.029 9 9 9 4.97 0 9-4.029 9-9 0-4.97-4.03-9-9-9-4.971 0-9 4.03-9 9z" fill-rule="evenodd" transform="translate(3 3)"/></svg>